HIERARCHY
ROOT joint_Root
{
	OFFSET 0.0 0.0 0.0
	CHANNELS 6 Xposition Yposition Zposition Zrotation Xrotation Yrotation 
	JOINT Hips
	{
		OFFSET 4.5925 91.4895 -427.239
		CHANNELS 6 Xposition Yposition Zposition Zrotation Xrotation Yrotation 
		JOINT Spine
		{
			OFFSET 15.7357 0.0 0.0
			CHANNELS 6 Xposition Yposition Zposition Zrotation Xrotation Yrotation 
			JOINT Chest
			{
				OFFSET 8.98455 -0.406207 0.0
				CHANNELS 6 Xposition Yposition Zposition Zrotation Xrotation Yrotation 
				JOINT Neck
				{
					OFFSET 16.3773 0.0 0.0
					CHANNELS 6 Xposition Yposition Zposition Zrotation Xrotation Yrotation 
					JOINT Head
					{
						OFFSET 6.45672 0.0 0.0
						CHANNELS 6 Xposition Yposition Zposition Zrotation Xrotation Yrotation 
						End Site
						{
							OFFSET 0.0 0.0 0.0
						}
					}
				}
				JOINT Shoulder_L
				{
					OFFSET 12.9942 -0.242716 4.98039
					CHANNELS 6 Xposition Yposition Zposition Zrotation Xrotation Yrotation 
					JOINT UpperArm_L
					{
						OFFSET 5.34809 0.0 0.0
						CHANNELS 6 Xposition Yposition Zposition Zrotation Xrotation Yrotation 
						JOINT LowerArm_L
						{
							OFFSET 24.3286 1.87007e-05 0.0
							CHANNELS 6 Xposition Yposition Zposition Zrotation Xrotation Yrotation 
							JOINT Hand_L
							{
								OFFSET 22.2916 0.0 0.0
								CHANNELS 6 Xposition Yposition Zposition Zrotation Xrotation Yrotation 
								End Site
								{
									OFFSET 0.0 0.0 0.0
								}
							}
						}
					}
				}
				JOINT Shoulder_R
				{
					OFFSET 12.9945 -0.242716 -4.98039
					CHANNELS 6 Xposition Yposition Zposition Zrotation Xrotation Yrotation 
					JOINT UpperArm_R
					{
						OFFSET -5.34813 0.0 0.0
						CHANNELS 6 Xposition Yposition Zposition Zrotation Xrotation Yrotation 
						JOINT LowerArm_R
						{
							OFFSET -24.3289 0.000322201 0.0
							CHANNELS 6 Xposition Yposition Zposition Zrotation Xrotation Yrotation 
							JOINT Hand_R
							{
								OFFSET -22.2915 -0.000108084 0.0
								CHANNELS 6 Xposition Yposition Zposition Zrotation Xrotation Yrotation 
								End Site
								{
									OFFSET 0.0 0.0 0.0
								}
							}
						}
					}
				}
			}
		}
		JOINT UpperLeg_L
		{
			OFFSET -2.19248 -6.46944 0.0
			CHANNELS 6 Xposition Yposition Zposition Zrotation Xrotation Yrotation 
			JOINT LowerLeg_L
			{
				OFFSET 39.0811 0.0 -1.23785e-05
				CHANNELS 6 Xposition Yposition Zposition Zrotation Xrotation Yrotation 
				JOINT Foot_L
				{
					OFFSET 40.9854 0.0 -1.26872e-05
					CHANNELS 6 Xposition Yposition Zposition Zrotation Xrotation Yrotation 
					JOINT Toes_L
					{
						OFFSET 11.7543 0.0 0.0
						CHANNELS 6 Xposition Yposition Zposition Zrotation Xrotation Yrotation 
						End Site
						{
							OFFSET 0.0 0.0 0.0
						}
					}
				}
			}
		}
		JOINT UpperLeg_R
		{
			OFFSET -2.19251 6.46944 0.0
			CHANNELS 6 Xposition Yposition Zposition Zrotation Xrotation Yrotation 
			JOINT LowerLeg_R
			{
				OFFSET -39.0811 -0.00228153 -0.0401928
				CHANNELS 6 Xposition Yposition Zposition Zrotation Xrotation Yrotation 
				JOINT Foot_R
				{
					OFFSET -40.9854 0.0 0.0
					CHANNELS 6 Xposition Yposition Zposition Zrotation Xrotation Yrotation 
					JOINT Toes_R
					{
						OFFSET -11.7543 0.0 0.0
						CHANNELS 6 Xposition Yposition Zposition Zrotation Xrotation Yrotation 
						End Site
						{
							OFFSET 0.0 0.0 0.0
						}
					}
				}
			}
		}
	}
}
MOTION
Frames:	6
Frame Time:	0.0333333
0.000000 0.000000 0.000000 0.000000 0.000000 -0.000000 -4.728180 88.228100 -403.945000 93.773200 -12.597300 -16.167900 15.735700 0.000005 -0.000001 120.379000 80.842600 -122.650000 8.984550 -0.406207 -0.000000 8.302260 9.210470 -5.215790 16.377300 -0.000001 -0.000001 0.254209 -2.633660 3.748770 6.456720 -0.000001 -0.000000 -11.261900 -5.088820 -2.133970 12.994200 -0.242716 4.980390 -85.997100 -9.034020 -65.979800 5.348090 -0.000007 -0.000001 -65.991100 26.733000 35.152100 24.328600 0.000019 0.000005 16.365500 13.062900 -52.414900 22.291600 -0.000001 0.000005 14.534600 5.612120 -12.034900 12.994500 -0.242716 -4.980390 90.622100 -3.370250 -79.535000 -5.348130 -0.000001 -0.000004 -53.038700 3.140160 -47.562800 -24.328900 0.000322 -0.000009 -4.618570 0.567267 -96.984000 -22.291500 -0.000108 -0.000004 27.261400 5.602890 -11.511500 -2.192480 -6.469440 -0.000000 170.364000 -1.707390 -63.810600 39.081100 -0.000007 -0.000012 0.107602 -0.024445 77.197400 40.985400 -0.000006 -0.000013 7.923970 -2.522960 -67.142700 11.754300 -0.000000 0.000003 -0.005829 -0.069287 -19.396500 -2.192510 6.469440 -0.000001 166.129000 15.226100 178.537000 -39.081100 -0.002282 -0.040193 0.083067 -0.129611 31.610100 -40.985400 0.000008 0.000006 1.421340 12.138600 -48.393400 -11.754300 -0.000006 -0.000006 -0.251109 -0.723938 -48.032200
0.000000 0.000000 0.000000 0.000000 0.000000 -0.000000 -5.020700 90.096900 -394.071000 91.254900 -10.712700 -15.051000 15.735700 0.000005 -0.000001 119.852000 80.502000 -121.600000 8.984550 -0.406207 -0.000000 8.945440 9.389760 -4.233950 16.377300 -0.000001 -0.000001 1.474480 -3.280380 4.296850 6.456720 -0.000001 -0.000000 -12.498300 -6.311080 -1.742820 12.994200 -0.242716 4.980390 -86.010700 -8.918090 -65.778900 5.348090 -0.000007 -0.000001 -66.538300 22.024300 35.677200 24.328600 0.000019 0.000005 18.184200 13.574700 -54.451200 22.291600 -0.000001 0.000005 10.735600 5.573350 -9.799560 12.994500 -0.242716 -4.980390 90.416800 -2.310370 -79.772000 -5.348130 -0.000001 -0.000004 -53.651000 6.080340 -43.034000 -24.328900 0.000322 -0.000009 -6.085220 0.670384 -96.264400 -22.291500 -0.000108 -0.000004 26.301400 5.594050 -10.988100 -2.192480 -6.469440 -0.000000 174.781000 -1.506000 -54.460200 39.081100 -0.000007 -0.000012 0.060930 -0.047985 51.775800 40.985400 -0.000006 -0.000013 4.953010 0.654310 -72.088500 11.754300 -0.000000 0.000003 -0.005010 -0.061574 -19.082100 -2.192510 6.469440 -0.000001 165.384000 19.092500 -176.697000 -39.081100 -0.002282 -0.040193 0.167737 -0.285446 29.944900 -40.985400 0.000008 0.000006 -6.667900 11.291100 -30.596500 -11.754300 -0.000006 -0.000006 -0.021973 -0.177982 -23.848700
0.000000 0.000000 0.000000 0.000000 0.000000 -0.000000 -5.589750 90.497200 -383.927000 89.526500 -10.176600 -13.978700 15.735700 0.000005 -0.000001 120.814000 80.184700 -122.378000 8.984550 -0.406207 -0.000000 9.337550 9.979650 -3.947740 16.377300 -0.000001 -0.000001 1.492110 -3.708960 3.965420 6.456720 -0.000001 -0.000000 -11.298900 -7.372500 -0.880655 12.994200 -0.242716 4.980390 -86.546500 -7.751700 -65.895200 5.348090 -0.000007 -0.000001 -66.171900 16.476600 34.331100 24.328600 0.000019 0.000005 20.428900 14.556200 -55.989700 22.291600 -0.000001 0.000005 8.214730 5.526050 -7.613230 12.994500 -0.242716 -4.980390 90.220100 -1.253220 -80.037400 -5.348130 -0.000001 -0.000004 -55.041600 10.338000 -36.409100 -24.328900 0.000322 -0.000009 -7.196510 0.401551 -93.184600 -22.291500 -0.000108 -0.000004 25.031200 5.589120 -10.713300 -2.192480 -6.469440 -0.000000 176.548000 -3.892120 -45.285700 39.081100 -0.000007 -0.000012 0.011903 -0.021971 28.447500 40.985400 -0.000006 -0.000013 2.491750 0.294991 -73.196700 11.754300 -0.000000 0.000003 -0.005564 -0.066827 -19.296200 -2.192510 6.469440 -0.000001 166.726000 15.109700 -173.760000 -39.081100 -0.002282 -0.040193 0.177780 -0.251809 34.719700 -40.985400 0.000008 0.000006 -4.667310 7.718430 -32.914300 -11.754300 -0.000006 -0.000006 -0.017085 -0.150568 -22.719800
0.000000 0.000000 0.000000 0.000000 0.000000 -0.000000 -6.069580 89.930100 -373.727000 87.972200 -9.672910 -13.251200 15.735700 0.000005 -0.000001 120.119000 80.000200 -121.575000 8.984550 -0.406207 -0.000000 9.771420 9.951070 -3.768550 16.377300 -0.000001 -0.000001 1.347930 -3.489960 3.731480 6.456720 -0.000001 -0.000000 -10.980000 -7.795350 0.084623 12.994200 -0.242716 4.980390 -87.667800 -5.181450 -65.725200 5.348090 -0.000007 -0.000001 -65.490000 11.439200 30.462000 24.328600 0.000019 0.000005 18.967800 13.683800 -55.460300 22.291600 -0.000001 0.000005 8.473020 5.494500 -6.318480 12.994500 -0.242716 -4.980390 89.870800 0.746583 -80.174200 -5.348130 -0.000001 -0.000004 -56.022500 15.140200 -29.720900 -24.328900 0.000322 -0.000009 -9.973970 -0.570954 -86.774600 -22.291500 -0.000108 -0.000004 23.513000 5.590750 -10.802100 -2.192480 -6.469440 -0.000000 176.249000 -8.041420 -41.594700 39.081100 -0.000007 -0.000012 0.001743 -0.004432 21.466900 40.985400 -0.000006 -0.000013 -0.417514 -4.018000 -73.593600 11.754300 -0.000000 0.000003 -0.005651 -0.067643 -19.329500 -2.192510 6.469440 -0.000001 171.270000 7.089050 -173.593000 -39.081100 -0.002282 -0.040193 0.175903 -0.180936 43.655100 -40.985400 0.000008 0.000006 -3.502710 1.530340 -33.999300 -11.754300 -0.000006 -0.000006 -0.017391 -0.152382 -22.794400
0.000000 0.000000 0.000000 0.000000 0.000000 -0.000000 -6.399050 88.438700 -363.818000 87.386900 -7.444110 -12.909500 15.735700 0.000005 -0.000001 114.651000 80.162700 -116.212000 8.984550 -0.406207 -0.000000 10.305000 8.118050 -3.857490 16.377300 -0.000001 -0.000001 0.877657 -3.147250 3.931750 6.456720 -0.000001 -0.000000 -12.136800 -7.510510 1.268900 12.994200 -0.242716 4.980390 -89.195100 -1.799440 -65.908200 5.348090 -0.000007 -0.000001 -64.458400 7.185450 24.307600 24.328600 0.000019 0.000005 14.194200 10.445700 -54.368400 22.291600 -0.000001 0.000005 8.948020 5.495540 -6.354970 12.994500 -0.242716 -4.980390 89.440700 3.298070 -80.370000 -5.348130 -0.000001 -0.000004 -56.847800 19.754700 -23.186200 -24.328900 0.000322 -0.000009 -12.477800 -2.733800 -77.843700 -22.291500 -0.000108 -0.000004 21.459000 5.584800 -10.464100 -2.192480 -6.469440 -0.000000 173.131000 -12.202600 -46.015000 39.081100 -0.000007 -0.000012 0.532297 -0.763073 34.900000 40.985400 -0.000006 -0.000013 5.781660 -7.803450 -71.432400 11.754300 -0.000000 0.000003 -0.006577 -0.076000 -19.670400 -2.192510 6.469440 -0.000001 174.665000 4.628640 -177.254000 -39.081100 -0.002282 -0.040193 0.253953 -0.155026 58.273000 -40.985400 0.000008 0.000006 -3.127740 -0.249177 -30.166200 -11.754300 -0.000006 -0.000006 -0.017325 -0.151994 -22.778400
0.000000 0.000000 0.000000 0.000000 0.000000 -0.000000 -6.390820 85.881200 -354.437000 89.793100 -4.351230 -12.500200 15.735700 0.000005 -0.000001 105.316000 80.245000 -107.782000 8.984550 -0.406207 -0.000000 11.197000 5.040320 -5.428210 16.377300 -0.000001 -0.000001 -0.516896 -3.660770 4.078250 6.456720 -0.000001 -0.000000 -13.287300 -6.852160 2.515710 12.994200 -0.242716 4.980390 -90.962000 2.317100 -67.415000 5.348090 -0.000007 -0.000001 -61.684900 5.541380 16.271200 24.328600 0.000019 0.000005 11.769400 7.811410 -56.889000 22.291600 -0.000001 0.000005 10.112700 5.506730 -6.797690 12.994500 -0.242716 -4.980390 88.834400 6.574230 -79.926200 -5.348130 -0.000001 -0.000004 -56.219300 23.919300 -17.156300 -24.328900 0.000322 -0.000009 -10.940000 -4.690720 -67.047100 -22.291500 -0.000108 -0.000004 17.937000 5.569250 -9.610110 -2.192480 -6.469440 -0.000000 171.220000 -11.186300 -47.827400 39.081100 -0.000007 -0.000012 0.347619 -0.317098 47.629200 40.985400 -0.000006 -0.000013 5.671340 -5.643540 -66.236800 11.754300 -0.000000 0.000003 -0.006018 -0.071006 -19.466600 -2.192510 6.469440 -0.000001 174.161000 6.379610 174.140000 -39.081100 -0.002282 -0.040193 0.373547 -0.069079 79.443100 -40.985400 0.000008 0.000006 -2.308520 0.001293 -28.032500 -11.754300 -0.000006 -0.000006 -0.017991 -0.155895 -22.938800
